{"title":"Fan (2016) 1CD xvid Webrip MP3 ESub -DDR","uid":14690929,"size":743223562,"categoryP":"video","categoryS":"movies","magnet":"?xt=urn:btih:6dab4ba793ccee660a42ffe2f4a3d8e14782be1d&amp;dn=Fan+%282016%29+1CD+xvid+Webrip+MP3+ESub+-DDR&amp;tr=udp%3A%2F%2Ftracker.leechers-paradise.org%3A6969&amp;tr=udp%3A%2F%2Fzer0day.ch%3A1337&amp;tr=udp%3A%2F%2Fopen.demonii.com%3A1337&amp;tr=udp%3A%2F%2Ftracker.coppersurfer.tk%3A6969&amp;tr=udp%3A%2F%2Fexodus.desync.com%3A6969","seeders":1,"leechers":1,"uploader":"SaM","files":3,"time":1464199060,"description":"- BollywooD MoviE -\r\n**- FAN -**\r\n- (2016) -\r\n** 1 CD / Webrip / MP3 Stereo **\r\nEnglish subtitle(s)\r\n \nhttp://extraimago.com/image/azGg \nhttp://extraimago.com/image/azGX \nhttp://extraimago.com/image/azGP \nhttp://extraimago.com/image/azGG \nhttp://extraimago.com/image/azGr \nhttp://extraimago.com/image/azGp \nhttp://extraimago.com/image/azGY \nhttp://extraimago.com/image/azGC \nhttp://extraimago.com/image/azGB \nhttp://extraimago.com/image/azG4 \nhttp://extraimago.com/image/azGe \nhttp://extraimago.com/image/azGZ \nhttp://extraimago.com/image/azGK\r\n\r\n[ Specs ]\r\nGeneral\r\nSource = WEBHD @ DDR\r\nFormat : AVI\r\nFormat/Info : Audio Video Interleave\r\nFile size : 704 MiB\r\nDuration : 2h 18mn\r\nOverall bit rate mode : Variable\r\nOverall bit rate : 711 Kbps\r\n\r\nVideo\r\nFormat : MPEG-4 Visual\r\nFormat profile : Advanced   \r\nCodec ID : XVID\r\nDuration : 2h 18mn\r\nBit rate : 623 Kbps\r\nWidth : 640 pixels\r\nHeight : 272 pixels\r\nDisplay aspect ratio : 2.35:1\r\nFrame rate : 23.976 (24000/1001) fps\r\ncolor space : YUV\r\nChroma subsampling : 4:2:0\r\nBit depth : 8 bits\r\nScan type : Progressive\r\nCompression mode : Lossy\r\nBits/(Pixel*Frame) : 0.149\r\nStream size : 616 MiB (88%)\r\n\r\nAudio\r\nFormat : MPEG Audio\r\nFormat version : Version 1\r\nFormat profile : Layer 3\r\nMode : Joint stereo\r\nMode extension : MS Stereo\r\nCodec ID : 55\r\nCodec ID/Hint : MP3\r\nDuration : 2h 18mn\r\nBit rate mode : Variable\r\nBit rate : 80.0 Kbps\r\nChannel(s) : 2 channels\r\nSampling rate : 32.0 KHz\r\nCompression mode : Lossy\r\nStream size : 77.1 MiB (11%)\r\nWriting library : LAME3.99r\r\n\r\nChapters: NO\r\nSample: YES - included\r\n\r\nA DDR Exclusive Release...!","torrent":{"xt":"urn:btih:6dab4ba793ccee660a42ffe2f4a3d8e14782be1d","amp;dn":"Fan+%282016%29+1CD+xvid+Webrip+MP3+ESub+-DDR","amp;tr":["udp%3A%2F%2Ftracker.leechers-paradise.org%3A6969","udp%3A%2F%2Fzer0day.ch%3A1337","udp%3A%2F%2Fopen.demonii.com%3A1337","udp%3A%2F%2Ftracker.coppersurfer.tk%3A6969","udp%3A%2F%2Fexodus.desync.com%3A6969"],"infoHash":"6dab4ba793ccee660a42ffe2f4a3d8e14782be1d","infoHashBuffer":{"type":"Buffer","data":[109,171,75,167,147,204,238,102,10,66,255,226,244,163,216,225,71,130,190,29]},"announce":[],"urlList":[]}}